SplineFontDB: 3.2
FontName: hmakranten_liparxe
FullName: hmakranten liparxe
FamilyName: hmakranten liparxe
Weight: Regular
Copyright: Copyright (c) 2020, skytomo
Version: 000.000
ItalicAngle: 0
UnderlinePosition: -98
UnderlineWidth: 48
Ascent: 800
Descent: 200
InvalidEm: 0
sfntRevision: 0x00000000
LayerCount: 2
Layer: 0 0 "+gMyXYgAA" 1
Layer: 1 0 "+Uk2XYgAA" 0
XUID: [1021 312 -1532662255 9093]
StyleMap: 0x0040
FSType: 0
OS2Version: 3
OS2_WeightWidthSlopeOnly: 0
OS2_UseTypoMetrics: 0
CreationTime: 1607827417
ModificationTime: 1608089248
PfmFamily: 17
TTFWeight: 400
TTFWidth: 5
LineGap: 0
VLineGap: 0
Panose: 2 0 5 3 0 0 0 0 0 0
OS2TypoAscent: 1000
OS2TypoAOffset: 0
OS2TypoDescent: -391
OS2TypoDOffset: 0
OS2TypoLinegap: 0
OS2WinAscent: 1000
OS2WinAOffset: 0
OS2WinDescent: 391
OS2WinDOffset: 0
HheadAscent: 1000
HheadAOffset: 0
HheadDescent: -391
HheadDOffset: 0
OS2SubXSize: 650
OS2SubYSize: 699
OS2SubXOff: 0
OS2SubYOff: 140
OS2SupXSize: 650
OS2SupYSize: 699
OS2SupXOff: 0
OS2SupYOff: 479
OS2StrikeYSize: 49
OS2StrikeYPos: 258
OS2CapHeight: 645
OS2XHeight: 475
OS2Vendor: 'PfEd'
OS2CodePages: 00000001.00000000
OS2UnicodeRanges: 00000003.00000000.00000000.00000000
MarkAttachClasses: 1
DEI: 91125
LangName: 1033 "" "" "" "FontForge 2.0 : hmakranten liparxe : 14-12-2020" "" "" "" "" "" "" "" "" "" "SIL Open Font License"
Encoding: UnicodeBmp
UnicodeInterp: none
NameList: AGL For New Fonts
DisplaySize: -48
AntiAlias: 1
FitToEm: 0
WinInfo: 64 16 3
BeginPrivate: 2
BlueValues 55 [-12 0 486 498 518 530 574 586 638 650 656 668 712 724]
BlueShift 1 0
EndPrivate
BeginChars: 65537 76

StartChar: .notdef
Encoding: 65536 -1 0
Width: 500
Flags: MW
HStem: 0 50<100 400 100 450> 446 50<100 400 100 100>
VStem: 50 50<50 50 50 446> 400 50<50 446 446 446>
LayerCount: 2
Fore
SplineSet
50 0 m 1
 50 496 l 1
 450 496 l 1
 450 0 l 1
 50 0 l 1
100 50 m 1
 400 50 l 1
 400 446 l 1
 100 446 l 1
 100 50 l 1
EndSplineSet
Validated: 1
EndChar

StartChar: exclam
Encoding: 33 33 1
Width: 287
Flags: MW
HStem: 372 126<128.5 161>
VStem: 85 119<417 454> 103 83<-184 -184> 116 57<288 288>
LayerCount: 2
Fore
SplineSet
103 -184 m 1xa0
 105 -90 l 1
 116 288 l 1
 173 288 l 1x90
 184 -90 l 1
 186 -184 l 1
 103 -184 l 1xa0
145 372 m 0
 112 372 85 398 85 436 c 0
 85 472 112 498 145 498 c 0
 177 498 204 472 204 436 c 0xc0
 204 398 177 372 145 372 c 0
EndSplineSet
Validated: 1
EndChar

StartChar: quotedbl
Encoding: 34 34 2
Width: 424
Flags: MW
HStem: 431 259<99 99 99 149 276 326 276 276>
VStem: 83 82<598 598> 260 82<598 598>
LayerCount: 2
Fore
SplineSet
99 431 m 1
 83 598 l 1
 80 690 l 1
 168 690 l 1
 165 598 l 1
 149 431 l 1
 99 431 l 1
276 431 m 1
 260 598 l 1
 257 690 l 1
 345 690 l 1
 342 598 l 1
 326 431 l 1
 276 431 l 1
EndSplineSet
Validated: 1
EndChar

StartChar: numbersign
Encoding: 35 35 3
Width: 247
Flags: MW
HStem: 431 259<99 99 99 149>
VStem: 83 82<598 598>
LayerCount: 2
Fore
SplineSet
99 431 m 1
 83 598 l 1
 80 690 l 1
 168 690 l 1
 165 598 l 1
 149 431 l 1
 99 431 l 1
EndSplineSet
Validated: 1
EndChar

StartChar: quotesingle
Encoding: 39 39 4
Width: 345
Flags: MW
HStem: 424 74<49 75.5 37.5 79.5>
VStem: 182 82<0 312 0 712>
LayerCount: 2
Fore
SplineSet
264 0 m 1
 264 712 l 1
 189 712 l 1
 189 398 l 1
 186 398 l 1
 153 459 103 498 48 498 c 0
 27 498 12 495 -4 488 c 1
 14 418 l 1
 29 422 39 424 59 424 c 0
 100 424 149 394 182 312 c 1
 182 0 l 1
 264 0 l 1
EndSplineSet
Validated: 9
EndChar

StartChar: parenleft
Encoding: 40 40 5
Width: 301
Flags: MW
VStem: 82 68<202 354 202 366>
LayerCount: 2
Fore
SplineSet
214 -176 m 1
 131 -42 82 102 82 278 c 0
 82 454 131 598 214 732 c 1
 265 708 l 1
 188 581 150 430 150 278 c 0
 150 126 188 -25 265 -152 c 1
 214 -176 l 1
EndSplineSet
Validated: 1
EndChar

StartChar: parenright
Encoding: 41 41 6
Width: 301
Flags: MW
VStem: 153 68<202 354>
LayerCount: 2
Fore
SplineSet
89 -176 m 1
 38 -152 l 1
 115 -25 153 126 153 278 c 0
 153 430 115 581 38 708 c 1
 89 732 l 1
 172 598 221 454 221 278 c 0
 221 102 172 -42 89 -176 c 1
EndSplineSet
Validated: 1
EndChar

StartChar: plus
Encoding: 43 43 7
Width: 495
Flags: MW
HStem: 299 62<34 216 34 216 281 463>
VStem: 216 65<299 556 361 556 361 556>
LayerCount: 2
Fore
SplineSet
216 299 m 1
 34 299 l 1
 34 361 l 1
 216 361 l 1
 216 556 l 1
 281 556 l 1
 281 361 l 1
 463 361 l 1
 463 299 l 1
 216 299 l 1
EndSplineSet
Validated: 1
EndChar

StartChar: hyphen
Encoding: 45 45 8
Width: 309
Flags: MW
HStem: 219 63<41 271 41 271>
VStem: 41 230<219 282 219 282>
LayerCount: 2
Fore
SplineSet
41 219 m 1
 41 282 l 1
 271 282 l 1
 271 219 l 1
 41 219 l 1
EndSplineSet
Validated: 1
EndChar

StartChar: zero
Encoding: 48 48 9
Width: 495
Flags: MW
HStem: -12 66<211.5 286 211.5 312.5> 584 66<211.5 286>
VStem: 44 80<227.5 414.5 227.5 428> 373 80<227.5 414.5>
LayerCount: 2
Fore
SplineSet
249 -12 m 0
 121 -12 44 107 44 321 c 0
 44 535 121 650 249 650 c 0
 376 650 453 535 453 321 c 0
 453 107 376 -12 249 -12 c 0
249 54 m 0
 323 54 373 134 373 321 c 0
 373 508 323 584 249 584 c 0
 174 584 124 508 124 321 c 0
 124 134 174 54 249 54 c 0
EndSplineSet
Validated: 1
EndChar

StartChar: one
Encoding: 49 49 10
Width: 496
Flags: MW
HStem: 0 21G<90 90 90 173> 568 70<173 468 173 173>
VStem: 90 83<0 568 0 638 0 638>
LayerCount: 2
Fore
SplineSet
90 0 m 1
 90 638 l 1
 468 638 l 1
 468 568 l 1
 173 568 l 1
 173 0 l 1
 90 0 l 1
EndSplineSet
Validated: 1
EndChar

StartChar: four
Encoding: 52 52 11
Width: 495
Flags: MW
HStem: 0 71<40 46.5 40 46.5 387 452> 583 67<203.5 270.5>
VStem: 369 80<330.5 439>
LayerCount: 2
Fore
SplineSet
40 0 m 1
 40 71 l 1
 53 71 178 70 188 70 c 1
 309 190 369 281 369 380 c 0
 369 498 311 583 230 583 c 0
 177 583 120 549 83 506 c 1
 37 551 l 1
 90 611 158 650 240 650 c 0
 358 650 449 518 449 385 c 0
 449 261 378 168 280 65 c 1
 315 68 354 71 387 71 c 2
 452 71 l 1
 452 0 l 1
 40 0 l 1
EndSplineSet
Validated: 1
EndChar

StartChar: six
Encoding: 54 54 12
Width: 540
Flags: MW
HStem: -12 68<229.5 313 229.5 330.5> 430 208<230 313 230 313>
VStem: 46 85<186.5 298 186.5 314> 230 82<494 638> 411 85<186.5 298>
CounterMasks: 1 38
LayerCount: 2
Fore
SplineSet
230 638 m 1
 313 638 l 1
 312 494 l 1
 413 475 496 386 496 242 c 0
 496 81 390 -12 271 -12 c 0
 152 -12 46 81 46 242 c 0
 46 386 129 475 230 494 c 1
 230 638 l 1
271 56 m 0
 355 56 411 131 411 242 c 0
 411 354 355 430 271 430 c 0
 188 430 131 354 131 242 c 0
 131 131 188 56 271 56 c 0
EndSplineSet
Validated: 1
EndChar

StartChar: nine
Encoding: 57 57 13
Width: 495
Flags: MW
HStem: -12 65<205.5 277.5 205.5 299.5> 328 62<204.5 256 175 264.5> 531 21G<106 106> 581 69<191 255.5>
VStem: 48 78<151 234.5 151 258.5> 379 78
LayerCount: 2
Fore
SplineSet
244 328 m 0
 165 328 126 276 126 193 c 0
 126 109 174 53 237 53 c 0
 318 53 367 120 377 244 c 1
 337 303 285 328 244 328 c 0
237 -12 m 0
 134 -12 48 71 48 193 c 0
 48 324 120 390 230 390 c 0
 282 390 339 359 379 310 c 1
 375 512 300 581 211 581 c 0
 171 581 132 562 106 531 c 1
 60 582 l 1
 96 621 145 650 214 650 c 0
 341 650 457 551 457 295 c 0
 457 90 362 -12 237 -12 c 0
EndSplineSet
Validated: 1
EndChar

StartChar: colon
Encoding: 58 58 14
Width: 247
Flags: MW
HStem: -12 126<108.5 141> 349 126<108.5 141>
VStem: 65 119<32 69 393 430>
LayerCount: 2
Fore
SplineSet
125 349 m 0
 92 349 65 375 65 411 c 0
 65 449 92 475 125 475 c 0
 157 475 184 449 184 411 c 0
 184 375 157 349 125 349 c 0
125 -12 m 0
 92 -12 65 14 65 50 c 0
 65 88 92 114 125 114 c 0
 157 114 184 88 184 50 c 0
 184 14 157 -12 125 -12 c 0
EndSplineSet
Validated: 1
EndChar

StartChar: semicolon
Encoding: 59 59 15
Width: 247
Flags: MW
HStem: -1 115<112.5 128.5> 349 126<108.5 141>
VStem: 65 119<393 430> 137 61
LayerCount: 2
Fore
SplineSet
125 349 m 0xe0
 92 349 65 375 65 411 c 0
 65 449 92 475 125 475 c 0
 157 475 184 449 184 411 c 0
 184 375 157 349 125 349 c 0xe0
67 -170 m 1
 47 -122 l 1
 104 -97 138 -53 137 0 c 1
 134 -1 130 -1 127 -1 c 0
 95 -1 68 19 68 56 c 0
 68 92 96 114 129 114 c 0
 172 114 198 77 198 17 c 0xd0
 198 -69 148 -136 67 -170 c 1
EndSplineSet
Validated: 33
EndChar

StartChar: less
Encoding: 60 60 16
Width: 495
Flags: W
LayerCount: 2
Fore
SplineSet
463 131 m 1
 34 299 l 1
 34 365 l 1
 463 533 l 1
 463 462 l 1
 252 384 l 1
 118 334 l 1
 118 330 l 1
 252 280 l 1
 463 202 l 1
 463 131 l 1
EndSplineSet
Validated: 1
EndChar

StartChar: greater
Encoding: 62 62 17
Width: 495
Flags: W
LayerCount: 2
Fore
SplineSet
34 131 m 1
 34 202 l 1
 245 280 l 1
 379 330 l 1
 379 334 l 1
 245 384 l 1
 34 462 l 1
 34 533 l 1
 463 365 l 1
 463 299 l 1
 34 131 l 1
EndSplineSet
Validated: 1
EndChar

StartChar: F
Encoding: 70 70 23
Width: 545
Flags: MW
HStem: 0 21G<82 82 82 164 389 389> 427 72<244 308>
VStem: 82 82<0 297 0 308 0 370> 389 82<0 297 297 308 -27 342.5>
LayerCount: 2
Fore
SplineSet
228 536 m 1
 186 577 l 1
 356 744 l 1
 407 689 l 1
 228 536 l 1
82 0 m 1
 82 308 l 2
 82 432 174 499 276 499 c 0
 378 499 471 398.750976562 471 308 c 2
 471 -27 l 1
 132 -132 l 1
 511 -198 l 1
 511 -256 l 1
 50 -168 l 1
 50 -105 l 1
 389 0 l 1
 389 297 l 2
 389 388 340 427 276 427 c 0
 212 427 164 391.54296875 164 297 c 2
 164 0 l 1
 82 0 l 1
EndSplineSet
Validated: 1
EndChar

StartChar: V
Encoding: 86 86 38
Width: 829
Flags: MW
HStem: 0 21G<70 70 70 152 377 377 377 459 684 684> 427 72<232 294.07 213 296 540.93 603>
VStem: 70 82<0 297 0 308 0 370> 377 82<0 297 0 344> 684 82<0 297 297 308 -27 344>
CounterMasks: 1 38
LayerCount: 2
Fore
SplineSet
377 536 m 1
 335 577 l 1
 505 744 l 1
 556 689 l 1
 377 536 l 1
70 0 m 1
 70 308 l 2
 70 432 162 499 264 499 c 0
 324.139648438 499 381.151367188 475.708007812 417.81640625 431.173828125 c 1
 454.196289062 475.708007812 510.860351562 499 571 499 c 0
 673 499 766 432 766 308 c 2
 766 -27 l 1
 194 -132 l 1
 806 -210 l 1
 806 -256 l 1
 112 -168 l 1
 112 -105 l 1
 684 0 l 1
 684 297 l 2
 684 391 635 427 571 427 c 0
 507 427 459 391.54296875 459 297 c 2
 459 0 l 1
 377 0 l 1
 377 297 l 2
 377 391 328 427 264 427 c 0
 200 427 152 391.54296875 152 297 c 2
 152 0 l 1
 70 0 l 1
EndSplineSet
Validated: 1
EndChar

StartChar: X
Encoding: 88 88 40
Width: 829
Flags: MW
HStem: 0 21G<70 70 70 152 377 377 377 459 684 684> 427 72<232 294.07 213 296 540.93 603>
VStem: 70 82<0 297 0 308 0 370> 377 82<0 297 0 344> 684 82<0 297 297 308 -27 344>
CounterMasks: 1 38
LayerCount: 2
Fore
SplineSet
377 536 m 1
 335 577 l 1
 505 744 l 1
 556 689 l 1
 377 536 l 1
70 0 m 1
 70 308 l 2
 70 432 162 499 264 499 c 0
 324.139648438 499 381.151367188 475.708007812 417.81640625 431.174804688 c 1
 454.196289062 475.708007812 510.860351562 499 571 499 c 0
 673 499 766 432 766 308 c 2
 766 -27 l 1
 194 -256 l 1
 112 -229 l 1
 684 0 l 1
 684 297 l 2
 684 391 635 427 571 427 c 0
 507 427 459 391.54296875 459 297 c 2
 459 0 l 1
 377 0 l 1
 377 297 l 2
 377 391 328 427 264 427 c 0
 200 427 152 391.54296875 152 297 c 2
 152 0 l 1
 70 0 l 1
EndSplineSet
Validated: 1
EndChar

StartChar: bracketleft
Encoding: 91 91 43
Width: 301
Flags: MW
HStem: -152 47<156 273 156 273> 661 47<156 273 156 156>
VStem: 94 62<-105 661 -105 708 -105 708> 94 179<-152 -105 661 708>
LayerCount: 2
Fore
SplineSet
94 -152 m 1xd0
 94 708 l 1
 273 708 l 1
 273 661 l 1xd0
 156 661 l 1
 156 -105 l 1xe0
 273 -105 l 1
 273 -152 l 1
 94 -152 l 1xd0
EndSplineSet
Validated: 1
EndChar

StartChar: bracketright
Encoding: 93 93 44
Width: 301
Flags: MW
HStem: -152 47<31 147 31 147 31 209> 661 47<31 147 31 209>
VStem: 31 178<-152 -105 -105 -105 661 708 -152 708> 147 62<-105 661 661 661>
LayerCount: 2
Fore
SplineSet
31 -152 m 1xe0
 31 -105 l 1xe0
 147 -105 l 1
 147 661 l 1xd0
 31 661 l 1
 31 708 l 1
 209 708 l 1
 209 -152 l 1
 31 -152 l 1xe0
EndSplineSet
Validated: 1
EndChar

StartChar: a
Encoding: 97 97 45
Width: 542
Flags: MW
HStem: -1 63<168 259 259 271> 225 57<168 258 168 267> 421 65<168 420 168 168>
VStem: 90 78<62 62 62 225 282 421> 379 76<118.5 176>
LayerCount: 2
Fore
SplineSet
90 -1 m 1
 90 486 l 1
 420 486 l 1
 420 421 l 1
 168 421 l 1
 168 282 l 1
 267 282 l 2
 375 282 455 249 455 146 c 0
 455 43 381 -1 271 -1 c 2
 90 -1 l 1
168 62 m 1
 259 62 l 2
 339 62 379 89 379 148 c 0
 379 204 338 225 258 225 c 2
 168 225 l 1
 168 62 l 1
EndSplineSet
Validated: 1
EndChar

StartChar: b
Encoding: 98 98 46
Width: 540
Flags: MW
HStem: -12 68<229.5 313 229.5 330.5> 430 282<230 313 230 313>
VStem: 46 85<186.5 298 186.5 314> 230 82<494 712> 411 85<186.5 298>
CounterMasks: 1 38
LayerCount: 2
Fore
SplineSet
230 712 m 1
 313 712 l 1
 312 494 l 1
 413 475 496 386 496 242 c 0
 496 81 390 -12 271 -12 c 0
 152 -12 46 81 46 242 c 0
 46 386 129 475 230 494 c 1
 230 712 l 1
271 56 m 0
 355 56 411 131 411 242 c 0
 411 354 355 430 271 430 c 0
 188 430 131 354 131 242 c 0
 131 131 188 56 271 56 c 0
EndSplineSet
Validated: 1
EndChar

StartChar: c
Encoding: 99 99 47
Width: 495
Flags: MW
HStem: -216 68<193.5 269.5 193.5 294.5> 96 63<159 227 159 235> 379 67<203.5 264>
VStem: 340 84<245.5 309> 363 83<-66.5 7>
LayerCount: 2
Fore
SplineSet
236 -216 m 0xe8
 134 -216 69 -173 26 -126 c 1
 68 -72 l 1
 106 -112 156 -148 231 -148 c 0
 308 -148 363 -102 363 -31 c 0xe8
 363 45 311 96 159 96 c 1
 159 159 l 1
 295 159 340 211 340 278 c 0
 340 340 298 379 230 379 c 0
 177 379 132 352 94 314 c 1
 50 366 l 1
 99 412 158 446 233 446 c 0
 344 446 424 387 424 284 c 0xf0
 424 207 377 158 308 132 c 1
 308 128 l 1
 385 110 446 54 446 -34 c 0
 446 -147 353 -216 236 -216 c 0xe8
EndSplineSet
Validated: 1
EndChar

StartChar: d
Encoding: 100 100 48
Width: 697
Flags: MW
HStem: 0 67<310 310 310 389> 466 20G<63 145 145 145 310 389 389 389 553 636 636 636>
VStem: 63 82<200 204 204 486> 310 79<0 0 67 486> 553 83<204 486>
LayerCount: 2
Fore
SplineSet
310 0 m 1
 155 7 63 88 63 200 c 2
 63 486 l 1
 145 486 l 1
 145 204 l 2
 145 121 201 72 310 67 c 1
 310 486 l 1
 389 486 l 1
 389 67 l 1
 498 73 553 121 553 204 c 2
 553 486 l 1
 636 486 l 1
 636 200 l 2
 636 88 543 7 389 0 c 1
 310 0 l 1
EndSplineSet
Validated: 1
EndChar

StartChar: e
Encoding: 101 101 49
Width: 542
Flags: MW
HStem: -12 71<217 257.5> 0 21G<394 462 394 394> 466 20G<75 158 158 158 380 462 462 462>
VStem: 75 83<178 189 189 486> 380 82<141 486 0 486> 394 68<0 486>
LayerCount: 2
Fore
SplineSet
224 -12 m 0xb4
 121 -12 75 54 75 178 c 2
 75 486 l 1
 158 486 l 1
 158 189 l 2
 158 98 185 59 249 59 c 0
 299 59 334 84 380 141 c 1
 380 486 l 1
 462 486 l 1xb8
 462 0 l 1
 394 0 l 1x74
 387 76 l 1
 384 76 l 1
 339 23 291 -12 224 -12 c 0xb4
EndSplineSet
Validated: 1
EndChar

StartChar: f
Encoding: 102 102 50
Width: 829
Flags: MW
HStem: 0 21G<70 70 70 152 377 377 377 459 684 684> 427 72<232 294.07 213 296 540.93 603>
VStem: 70 82<0 297 0 308 0 370> 377 82<0 297 0 344> 684 82<0 297 297 308 -27 344>
LayerCount: 2
Fore
SplineSet
70 0 m 1
 70 308 l 2
 70 432 162 499 264 499 c 0
 324.139648438 499 381.151367188 475.708007812 417.81640625 431.173828125 c 1
 454.196289062 475.708007812 510.860351562 499 571 499 c 0
 673 499 766 432 766 308 c 2
 766 -27 l 1
 194 -132 l 1
 806 -210 l 1
 806 -256 l 1
 112 -168 l 1
 112 -105 l 1
 684 0 l 1
 684 297 l 2
 684 391 635 427 571 427 c 0
 507 427 459 391.54296875 459 297 c 2
 459 0 l 1
 377 0 l 1
 377 297 l 2
 377 391 328 427 264 427 c 0
 200 427 152 391.54296875 152 297 c 2
 152 0 l 1
 70 0 l 1
EndSplineSet
Validated: 1
EndChar

StartChar: g
Encoding: 103 103 51
Width: 586
Flags: MW
HStem: -140 100<170 198 363 391> 0 21G<90 90 90 173 415 415 415 498> 416 70<173 415 173 173>
VStem: 90 83<0 416 0 486 0 486> 134 100<-104 -76> 328 98<-104 -76> 415 83<0 416 416 416>
LayerCount: 2
Fore
SplineSet
184 -140 m 0xe8
 156 -140 134 -118 134 -90 c 0
 134 -62 156 -40 184 -40 c 0
 212 -40 234 -62 234 -90 c 0
 234 -118 212 -140 184 -140 c 0xe8
377 -140 m 0
 349 -140 328 -118 328 -90 c 0
 328 -62 349 -40 377 -40 c 0
 405 -40 426 -62 426 -90 c 0xe4
 426 -118 405 -140 377 -140 c 0
90 0 m 1xf2
 90 486 l 1
 498 486 l 1
 498 0 l 1
 415 0 l 1
 415 416 l 1
 173 416 l 1
 173 0 l 1
 90 0 l 1xf2
EndSplineSet
Validated: 1
EndChar

StartChar: h
Encoding: 104 104 52
Width: 454
Flags: MW
HStem: -12 68<236.5 303> 430 68<239 303>
VStem: 46 85<186.5 298 186.5 323.5>
LayerCount: 2
Fore
SplineSet
274 -12 m 0
 145 -12 46 81 46 242 c 0
 46 405 155 498 280 498 c 0
 344 498 388 473 422 441 c 1
 381 389 l 1
 354 414 323 430 283 430 c 0
 195 430 131 354 131 242 c 0
 131 131 192 56 281 56 c 0
 326 56 366 76 395 102 c 1
 431 50 l 1
 387 10 332 -12 274 -12 c 0
EndSplineSet
Validated: 1
EndChar

StartChar: i
Encoding: 105 105 53
Width: 545
Flags: MW
HStem: 0 21G<82 82 82 164 389 389 389 471> 427 71<289.5 329> 466 20G<82 150 150 150>
VStem: 82 68<0 486 486 486> 82 82<0 352 0 486> 389 82<0 297 297 308 0 342.5>
LayerCount: 2
Fore
SplineSet
82 0 m 1xcc
 82 486 l 1
 150 486 l 1xb4
 157 416 l 1
 160 416 l 1
 206 462 256 498 323 498 c 0
 425 498 471 432 471 308 c 2
 471 0 l 1
 389 0 l 1
 389 297 l 2
 389 388 361 427 297 427 c 0
 247 427 213 401 164 352 c 1
 164 0 l 1
 82 0 l 1xcc
EndSplineSet
Validated: 1
EndChar

StartChar: j
Encoding: 106 106 54
Width: 545
Flags: MW
HStem: -12 71<217 257.5> 466 20G<75 158 158 158 382 465 465 465>
VStem: 75 83<178 189 189 486> 382 83<-205 -31 -31 -31 141 486 -205 486>
LayerCount: 2
Fore
SplineSet
382 -205 m 1
 382 -31 l 1
 387 75 l 1
 340 23 291 -12 224 -12 c 0
 121 -12 75 54 75 178 c 2
 75 486 l 1
 158 486 l 1
 158 189 l 2
 158 98 185 59 249 59 c 0
 299 59 335 83 382 141 c 1
 382 486 l 1
 465 486 l 1
 465 -205 l 1
 382 -205 l 1
EndSplineSet
Validated: 1
EndChar

StartChar: k
Encoding: 107 107 55
Width: 586
Flags: MW
HStem: 0 21G<90 90 90 173 415 415 415 498> 416 70<173 415 173 173>
VStem: 90 83<0 416 0 486 0 486> 415 83<0 416 416 416>
LayerCount: 2
Fore
SplineSet
90 0 m 1
 90 486 l 1
 498 486 l 1
 498 0 l 1
 415 0 l 1
 415 416 l 1
 173 416 l 1
 173 0 l 1
 90 0 l 1
EndSplineSet
Validated: 1
EndChar

StartChar: l
Encoding: 108 108 56
Width: 454
Flags: MW
HStem: -12 66<189.5 247 189.5 272.5> 221 63<143 199 199 211 143 199> 433 65<187 244>
VStem: 315 81<343.5 384> 335 82<114.5 167.5>
LayerCount: 2
Fore
SplineSet
220 -12 m 0xe8
 154 -12 93 2 37 50 c 1
 73 103 l 1
 117 67 165 54 214 54 c 0
 280 54 335 88 335 141 c 0xe8
 335 194 291 221 211 221 c 2
 143 221 l 1
 143 284 l 1
 199 284 l 2
 277 284 315 313 315 359 c 0
 315 409 273 433 215 433 c 0
 159 433 122 417 83 390 c 1
 48 444 l 1
 95 477 148 498 219 498 c 0
 314 498 396 455 396 368 c 0
 396 319 367 278 315 258 c 1
 315 254 l 1xf0
 373 240 417 204 417 134 c 0
 417 44 325 -12 220 -12 c 0xe8
EndSplineSet
Validated: 1
EndChar

StartChar: m
Encoding: 109 109 57
Width: 540
Flags: HMW
HStem: -12 68<229.5 313 229.5 330.5> 430 68<229.5 312.5 211.5 313> 660 64<248.5 300>
VStem: 46 85<186.5 298 186.5 323.5> 389 78<562.5 618> 411 85<186.5 298>
LayerCount: 2
Fore
SplineSet
343 486 m 5xf8
 429 456 496 371 496 242 c 0xf4
 496 81 390 -12 271 -12 c 0
 152 -12 46 81 46 242 c 0
 46 405 152 498 271 498 c 4
 354 498 389 539 389 586 c 4
 389 650 328 660 272 660 c 4
 225 660 165 649 82 619 c 5
 62 685 l 5
 142 711 210 724 271 724 c 4
 381 724 467 668 467 586 c 4
 467 520 390 486 343 486 c 5xf8
271 56 m 0
 355 56 411 131 411 242 c 0
 411 354 355 430 271 430 c 0
 188 430 131 354 131 242 c 0
 131 131 188 56 271 56 c 0
EndSplineSet
Validated: 1
EndChar

StartChar: n
Encoding: 110 110 58
Width: 736
Flags: MW
HStem: -12 68<438.5 518 438.5 540> 0 21G<82 164 82 82> 213 73<164 269 164 270> 430 68<438.5 518> 466 20G<82 164 164 164>
VStem: 82 82<0 213 0 286 286 486> 269 77<213 213> 607 85<186.5 298>
LayerCount: 2
Fore
SplineSet
478 56 m 0xb7
 558 56 607 131 607 242 c 0
 607 354 558 430 478 430 c 0
 399 430 346 354 346 242 c 0
 346 131 399 56 478 56 c 0xb7
482 -12 m 0
 368 -12 280 71 269 213 c 1
 164 213 l 1
 164 0 l 1
 82 0 l 1
 82 486 l 1
 164 486 l 1x6f
 164 286 l 1
 270 286 l 1
 286 420 372 498 482 498 c 0
 598 498 692 405 692 242 c 0
 692 81 598 -12 482 -12 c 0
EndSplineSet
Validated: 1
EndChar

StartChar: o
Encoding: 111 111 59
Width: 454
Flags: MW
HStem: -12 66<152 220 152 249> 221 65<116 325 116 327 116 325> 433 65<159 220.5>
VStem: 327 83<221 221>
LayerCount: 2
Fore
SplineSet
184 -12 m 0
 120 -12 64 11 24 51 c 1
 59 101 l 1
 89 73 128 54 176 54 c 0
 264 54 321 111 327 221 c 1
 116 221 l 1
 116 286 l 1
 325 286 l 1
 313 384 258 433 183 433 c 0
 135 433 102 415 73 390 c 1
 34 439 l 1
 69 471 117 498 188 498 c 0
 310 498 410 416 410 242 c 0
 410 74 314 -12 184 -12 c 0
EndSplineSet
Validated: 1
EndChar

StartChar: p
Encoding: 112 112 60
Width: 444
Flags: MW
HStem: 0 21G<14 14 14 100 343 343 343 432> 466 20G<26 115 115 115 335 421 421 421>
LayerCount: 2
Fore
SplineSet
14 0 m 1
 173 254 l 1
 26 486 l 1
 115 486 l 1
 180 379 l 2
 195 353 211 325 228 298 c 1
 232 298 l 1
 246 325 261 353 276 379 c 2
 335 486 l 1
 421 486 l 1
 274 245 l 1
 432 0 l 1
 343 0 l 1
 272 113 l 2
 255 142 237 172 219 200 c 1
 215 200 l 1
 198 172 182 143 166 113 c 2
 100 0 l 1
 14 0 l 1
EndSplineSet
Validated: 1
EndChar

StartChar: q
Encoding: 113 113 61
Width: 673
Flags: MW
HStem: -12 68<113.5 153.5 113.5 178 520.5 559.5> 201 86<313 361 313 313> 430 68<114 152.5 521.5 560>
VStem: 229 84<201 201 201 298> 361 84<201 201 287 287>
LayerCount: 2
Fore
SplineSet
361 201 m 1
 313 201 l 1
 301 65 225 -12 131 -12 c 0
 96 -12 51 10 25 50 c 1
 46 102 l 1
 64 76 100 56 127 56 c 0
 180 56 229 131 229 242 c 0
 229 354 179 430 126 430 c 0
 102 430 71 414 55 389 c 1
 31 441 l 1
 52 473 89 498 128 498 c 0
 221 498 298 422 312 287 c 1
 361 287 l 1
 375 422 453 498 546 498 c 0
 585 498 622 473 643 441 c 1
 618 389 l 1
 602 414 572 430 548 430 c 0
 495 430 445 354 445 242 c 0
 445 131 494 56 547 56 c 0
 574 56 609 76 627 102 c 1
 648 50 l 1
 622 10 577 -12 542 -12 c 0
 448 -12 373 65 361 201 c 1
EndSplineSet
Validated: 1
EndChar

StartChar: r
Encoding: 114 114 62
Width: 345
Flags: MW
HStem: 0 21G<82 82 82 164> 424 74<270.5 297> 692 20G<82 157 157 157>
VStem: 82 75<398 712 398 712 398 712> 82 82<0 312 0 712>
LayerCount: 2
Fore
SplineSet
82 0 m 1xe8
 82 712 l 1
 157 712 l 1
 157 398 l 1xf0
 160 398 l 1
 193 459 243 498 298 498 c 0
 319 498 334 495 350 488 c 1
 332 418 l 1
 317 422 307 424 287 424 c 0
 246 424 197 394 164 312 c 1
 164 0 l 1
 82 0 l 1xe8
EndSplineSet
Validated: 1
EndChar

StartChar: s
Encoding: 115 115 63
Width: 553
Flags: MW
HStem: 0 65<173 235 235 237> 420 66<173 233 233 235 173 173>
VStem: 90 83<65 65 65 420> 417 86<165 289.5>
LayerCount: 2
Fore
SplineSet
90 0 m 1
 90 486 l 1
 233 486 l 2
 404 486 503 399 503 229 c 0
 503 58 404 0 237 0 c 2
 90 0 l 1
173 65 m 1
 235 65 l 2
 358 65 417 101 417 229 c 0
 417 350 358 420 235 420 c 2
 173 420 l 1
 173 65 l 1
EndSplineSet
Validated: 1
EndChar

StartChar: t
Encoding: 116 116 64
Width: 563
Flags: MW
HStem: 0 21G<82 82 82 171 403 403 403 483> 466 20G<82 162 162 162 393 483 483 483>
VStem: 82 80<257 284 284 486> 403 80<0 202 202 228>
LayerCount: 2
Fore
SplineSet
82 0 m 1
 82 486 l 1
 162 486 l 1
 162 284 l 2
 162 230 158 171 154 102 c 1
 158 102 l 1
 177 137 202 182 221 212 c 2
 393 486 l 1
 483 486 l 1
 483 0 l 1
 403 0 l 1
 403 202 l 2
 403 254 405 314 411 384 c 1
 407 384 l 1
 388 348 363 303 344 273 c 2
 171 0 l 1
 82 0 l 1
EndSplineSet
Validated: 1
EndChar

StartChar: u
Encoding: 117 117 65
Width: 454
Flags: HMW
HStem: -12 68<151 217.5 150.5 244.5> 430 68<151 215>
VStem: 323 85<186.5 298>
LayerCount: 2
Fore
SplineSet
180 -12 m 0
 122 -12 67 10 23 50 c 1
 59 102 l 1
 88 76 128 56 173 56 c 0
 262 56 323 131 323 242 c 0
 323 354 259 430 171 430 c 0
 131 430 100 414 73 389 c 1
 32 441 l 1
 66 473 110 498 174 498 c 0
 299 498 408 405 408 242 c 0
 408 81 309 -12 180 -12 c 0
EndSplineSet
Validated: 1
EndChar

StartChar: v
Encoding: 118 118 66
Width: 545
Flags: MW
HStem: 0 21G<82 82 82 164 389 389> 427 72<244 308>
VStem: 82 82<0 297 0 308 0 370> 389 82<0 297 297 308 -27 342.5>
LayerCount: 2
Fore
SplineSet
82 0 m 1
 82 308 l 2
 82 432 174 499 276 499 c 0
 378 499 471 398.750976562 471 308 c 2
 471 -27 l 1
 132 -132 l 1
 511 -198 l 1
 511 -256 l 1
 50 -168 l 1
 50 -105 l 1
 389 0 l 1
 389 297 l 2
 389 388 340 427 276 427 c 0
 212 427 164 391.54296875 164 297 c 2
 164 0 l 1
 82 0 l 1
EndSplineSet
Validated: 1
EndChar

StartChar: w
Encoding: 119 119 67
Width: 540
Flags: MW
HStem: -12 68<229.5 313 229.5 330.5> 430 68<229.5 313>
VStem: 46 85<186.5 298 186.5 323.5> 411 85<186.5 298>
LayerCount: 2
Fore
SplineSet
271 -12 m 0
 152 -12 46 81 46 242 c 0
 46 405 152 498 271 498 c 0
 390 498 496 405 496 242 c 0
 496 81 390 -12 271 -12 c 0
271 56 m 0
 355 56 411 131 411 242 c 0
 411 354 355 430 271 430 c 0
 188 430 131 354 131 242 c 0
 131 131 188 56 271 56 c 0
EndSplineSet
Validated: 1
EndChar

StartChar: x
Encoding: 120 120 68
Width: 829
Flags: MW
HStem: 0 21G<70 70 70 152 377 377 377 459 684 684> 427 72<232 294.07 213 296 540.93 603>
VStem: 70 82<0 297 0 308 0 370> 377 82<0 297 0 344> 684 82<0 297 297 308 -27 344>
CounterMasks: 1 38
LayerCount: 2
Fore
SplineSet
70 0 m 1
 70 308 l 2
 70 432 162 499 264 499 c 0
 324.139648438 499 381.151367188 475.708007812 417.81640625 431.173828125 c 1
 454.196289062 475.708007812 510.860351562 499 571 499 c 0
 673 499 766 432 766 308 c 2
 766 -27 l 1
 194 -256 l 1
 112 -229 l 1
 684 0 l 1
 684 297 l 2
 684 391 635 427 571 427 c 0
 507 427 459 391.54296875 459 297 c 2
 459 0 l 1
 377 0 l 1
 377 297 l 2
 377 391 328 427 264 427 c 0
 200 427 152 391.54296875 152 297 c 2
 152 0 l 1
 70 0 l 1
EndSplineSet
Validated: 1
EndChar

StartChar: y
Encoding: 121 121 69
Width: 568
Flags: MW
HStem: -12 68<113.5 153.5 113.5 178> 0 21G<402 488 402 402> 201 86<313 402 313 313> 430 68<114 152.5> 468 20G<402 488 488 488>
VStem: 229 84<201 201 201 298> 402 86<0 201 201 201 287 488 0 488>
LayerCount: 2
Fore
SplineSet
131 -12 m 0xa6
 96 -12 51 10 25 50 c 1
 46 102 l 1
 64 76 100 56 127 56 c 0
 180 56 229 131 229 242 c 0
 229 354 179 430 126 430 c 0
 102 430 71 414 55 389 c 1
 31 441 l 1
 52 473 89 498 128 498 c 0xb6
 221 498 298 422 312 287 c 1
 402 287 l 1
 402 488 l 1
 488 488 l 1
 488 0 l 1
 402 0 l 1x6e
 402 201 l 1
 313 201 l 1
 301 65 225 -12 131 -12 c 0xa6
EndSplineSet
Validated: 1
EndChar

StartChar: z
Encoding: 122 122 70
Width: 563
Flags: MW
HStem: -140 100<170 198 363 391> 0 21G<82 82 82 171 403 403 403 483> 466 20G<82 162 162 162 393 483 483 483>
VStem: 82 80<257 284 284 486> 134 100<-104 -76> 328 98<-104 -76> 403 80<0 202 202 228>
LayerCount: 2
Fore
SplineSet
184 -140 m 0xe8
 156 -140 134 -118 134 -90 c 0
 134 -62 156 -40 184 -40 c 0
 212 -40 234 -62 234 -90 c 0
 234 -118 212 -140 184 -140 c 0xe8
377 -140 m 0
 349 -140 328 -118 328 -90 c 0
 328 -62 349 -40 377 -40 c 0
 405 -40 426 -62 426 -90 c 0xe4
 426 -118 405 -140 377 -140 c 0
82 0 m 1xf2
 82 486 l 1
 162 486 l 1
 162 284 l 2
 162 230 158 171 154 102 c 1
 158 102 l 1
 177 137 202 182 221 212 c 2
 393 486 l 1
 483 486 l 1
 483 0 l 1
 403 0 l 1
 403 202 l 2
 403 254 405 314 411 384 c 1
 407 384 l 1
 388 348 363 303 344 273 c 2
 171 0 l 1
 82 0 l 1xf2
EndSplineSet
Validated: 1
EndChar

StartChar: braceleft
Encoding: 123 123 71
Width: 301
Flags: MW
HStem: -152 47<188.5 273 246 273 246 273> 252 52<34 34> 661 47<228 246 246 273>
VStem: 111 67<-46.5 16.5 -46.5 17.5 539.5 602.5> 120 64<140.5 193.5 362 415>
CounterMasks: 1 e0
LayerCount: 2
Fore
SplineSet
228 -152 m 2xf0
 149 -152 111 -122 111 -19 c 0xf0
 111 54 120 107 120 174 c 0
 120 213 102 251 34 252 c 1
 34 304 l 1
 102 305 120 343 120 381 c 0xe8
 120 449 111 502 111 575 c 0
 111 678 149 708 228 708 c 2
 273 708 l 1
 273 661 l 1
 246 661 l 2
 192 661 178 635 178 570 c 0xf0
 178 509 184 457 184 389 c 0
 184 324 167 292 124 280 c 1
 124 276 l 1
 167 264 184 231 184 167 c 0xe8
 184 99 178 47 178 -14 c 0
 178 -79 192 -105 246 -105 c 2
 273 -105 l 1
 273 -152 l 1
 228 -152 l 2xf0
EndSplineSet
Validated: 1
EndChar

StartChar: braceright
Encoding: 125 125 72
Width: 301
Flags: MW
HStem: -152 47<31 57 31 57 57 75> 252 52<269 269> 661 47<31 57 31 75>
VStem: 120 63<140.5 193.5 140.5 199 362 415> 125 67<-46.5 16.5 539.5 602.5>
CounterMasks: 1 e0
LayerCount: 2
Fore
SplineSet
31 -152 m 1xe8
 31 -105 l 1
 57 -105 l 2
 111 -105 125 -79 125 -14 c 0xe8
 125 47 120 99 120 167 c 0
 120 231 136 264 179 276 c 1
 179 280 l 1
 136 292 120 324 120 389 c 0xf0
 120 457 125 509 125 570 c 0
 125 635 111 661 57 661 c 2
 31 661 l 1
 31 708 l 1
 75 708 l 2
 155 708 192 678 192 575 c 0xe8
 192 502 183 449 183 381 c 0
 183 343 202 305 269 304 c 1
 269 252 l 1
 202 251 183 213 183 174 c 0xf0
 183 107 192 54 192 -19 c 0
 192 -122 155 -152 75 -152 c 2
 31 -152 l 1xe8
EndSplineSet
Validated: 1
EndChar

StartChar: asciitilde
Encoding: 126 126 73
Width: 495
Flags: MW
HStem: 257 62<310 352.5 310 357.5> 341 62<144.5 187>
LayerCount: 2
Fore
SplineSet
336 257 m 0
 257 257 215 341 159 341 c 0
 130 341 105 323 82 280 c 1
 36 313 l 1
 72 377 118 403 161 403 c 0
 240 403 282 319 338 319 c 0
 367 319 392 337 415 380 c 1
 461 346 l 1
 425 283 379 257 336 257 c 0
EndSplineSet
Validated: 1
EndChar

StartChar: uni0086
Encoding: 134 134 74
Width: 545
Flags: MW
HStem: 0 21G<82 82 82 164 389 389 389 471> 427 72<244 308>
VStem: 82 82<0 297 0 308 0 370> 389 82<0 297 297 308 0 342.5>
LayerCount: 2
Fore
SplineSet
82 0 m 1
 82 308 l 2
 82 432 174 499 276 499 c 0
 378 499 471 432 471 308 c 2
 471 0 l 1
 389 0 l 1
 389 297 l 2
 389 388 340 427 276 427 c 0
 212 427 164 391.54296875 164 297 c 2
 164 0 l 1
 82 0 l 1
EndSplineSet
Validated: 1
EndChar

StartChar: R
Encoding: 82 82 75
Width: 347
Flags: W
HStem: 424 74<229.13 335.063> 660 64<86.4326 192.442>
VStem: 82 82<312 355.717> 206 68<531.565 647.471>
LayerCount: 2
Fore
SplineSet
82 486 m 0
 82 0 l 1
 164 0 l 1
 164 312 l 1
 197 394 246 424 287 424 c 0
 307 424 317 422 332 418 c 1
 350 488 l 1
 334 495 319 498 298 498 c 0
 243 498 193 459 160 398 c 1
 157 398 l 1
 150 486 l 1
 197 486 274 520 274 586 c 0
 274 696 207.5 724 152.5 724 c 0
 122 724 88 711 48 685 c 1
 58 619 l 1
 99.5 649 120.5 660 144 660 c 0
 172 660 206 650 206 586 c 0
 206 539 165 486 82 486 c 0
EndSplineSet
Validated: 9
EndChar
